<svg width="375" height="812" viewBox="0 0 375 812" fill="none" xmlns="http://www.w3.org/2000/svg">
<mask id="mask0_2091_10982" style="mask-type:luminance" maskUnits="userSpaceOnUse" x="-160" y="-116" width="695" height="1042">
<path d="M-160 -115.012L-160 926H534.008L534.008 -115.012H-160Z" fill="white"/>
</mask>
<g mask="url(#mask0_2091_10982)">
<path d="M489.904 -10.517C504.234 20.4135 515.435 52.9209 522.958 86.2791C526.716 102.957 529.545 119.85 531.331 136.847C533.116 153.842 533.87 170.947 533.399 188.007C532.935 205.065 531.277 222.082 528.259 238.848C525.228 255.607 520.8 272.104 514.879 288.051C508.942 303.988 501.441 319.339 492.411 333.772C487.876 340.974 482.952 347.938 477.659 354.623C476.992 355.457 476.35 356.299 475.662 357.129L473.592 359.62L471.523 362.112C470.84 362.949 470.114 363.746 469.41 364.566L467.285 367.009L466.222 368.232C465.868 368.639 465.499 369.032 465.137 369.433L460.77 374.213C448.973 386.814 436.145 398.458 422.286 408.747C408.43 419.034 393.53 427.945 377.764 435.039C369.887 438.598 361.781 441.655 353.514 444.214L350.41 445.166L347.283 446.036C345.202 446.64 343.097 447.14 340.995 447.664C339.946 447.938 338.888 448.164 337.829 448.396L334.655 449.095L331.464 449.71C330.399 449.911 329.336 450.132 328.264 450.293C326.125 450.641 323.986 451.013 321.835 451.28C320.759 451.42 319.686 451.584 318.608 451.706L315.372 452.056C314.832 452.111 314.293 452.178 313.753 452.225L312.13 452.356L308.882 452.617L305.629 452.789L304 452.876L302.372 452.921L299.113 453.004L295.853 453.001L294.222 452.998C293.678 452.994 293.135 452.968 292.591 452.955L289.329 452.858L286.07 452.675L284.44 452.581L282.814 452.443L279.559 452.163L276.312 451.791C259.025 449.707 241.937 444.927 226.299 436.967C222.393 434.979 218.572 432.81 214.902 430.397C211.225 427.997 207.669 425.403 204.271 422.604C197.516 416.967 191.398 410.5 186.336 403.221C195.138 404.264 204.105 403.986 212.919 402.654C217.323 401.962 221.69 401.009 225.999 399.83C230.313 398.664 234.554 397.22 238.719 395.582C240.814 394.791 242.858 393.876 244.915 392.985L247.961 391.562C248.471 391.33 248.971 391.079 249.471 390.825L250.971 390.067L252.473 389.308L253.951 388.507C254.933 387.966 255.928 387.446 256.899 386.886L259.806 385.188C260.78 384.627 261.716 384.01 262.674 383.423L264.102 382.53C264.575 382.229 265.037 381.911 265.507 381.602C266.439 380.977 267.38 380.362 268.308 379.728C270.137 378.424 271.99 377.149 273.768 375.773C275.582 374.441 277.321 373.017 279.081 371.613C279.956 370.906 280.803 370.164 281.664 369.441L282.953 368.35C283.379 367.982 283.792 367.601 284.213 367.227L286.727 364.972L289.178 362.647L290.402 361.481L291.594 360.284L293.976 357.886L296.296 355.425C296.68 355.013 297.073 354.609 297.45 354.19L298.576 352.927L300.823 350.396L303.005 347.809L304.093 346.511L305.148 345.188L307.259 342.539L309.297 339.833L310.316 338.479C310.652 338.025 310.972 337.56 311.303 337.102L313.267 334.338C313.916 333.414 314.53 332.466 315.164 331.53C316.445 329.666 317.633 327.744 318.842 325.831C319.459 324.882 320.022 323.902 320.602 322.93L322.333 320.01L323.988 317.046C324.54 316.058 325.098 315.073 325.612 314.063C326.66 312.056 327.73 310.059 328.702 308.015L330.191 304.96L331.602 301.868C335.343 293.613 338.587 285.121 341.281 276.452C346.697 259.122 350.094 241.159 351.673 223.051C353.254 204.938 353.045 186.682 351.362 168.587C351.139 166.327 350.886 164.07 350.649 161.809C350.585 161.244 350.534 160.678 350.461 160.115L350.242 158.427L349.804 155.048C349.649 153.924 349.527 152.791 349.345 151.671L348.831 148.305L348.314 144.938C348.141 143.815 347.92 142.678 347.724 141.548C346.121 132.497 344.024 123.522 341.449 114.681C336.256 97.0098 329.198 79.8734 320.55 63.6003C311.884 47.3313 301.699 31.891 290.326 17.4195C278.938 2.95639 266.394 -10.5601 252.988 -23.1202C239.583 -35.6887 225.297 -47.2801 210.376 -57.9567C195.452 -68.6319 179.884 -78.3868 163.823 -87.2466C132.068 -104.752 98.4159 -118.784 63.6239 -129.328L-25.3549 -158.731L-176.184 -115.011C-91.9769 -121.715 29.6508 -96.996 29.6508 -96.996C37.1766 -95.5302 44.6747 -93.8965 52.1339 -92.0796C85.2505 -83.9972 117.65 -72.4878 148.421 -57.5694C163.802 -50.1075 178.774 -41.7863 193.177 -32.5865C207.578 -23.3853 221.419 -13.3098 234.465 -2.30557C247.512 8.69308 259.784 20.5995 271.01 33.4123C282.222 46.232 292.36 59.9789 301.134 74.5503C309.893 89.1286 317.22 104.565 322.872 120.623C325.676 128.659 328.051 136.85 329.976 145.157C330.212 146.2 330.47 147.225 330.691 148.282L331.347 151.452L332.005 154.624C332.234 155.68 332.403 156.744 332.606 157.805L333.192 160.989L333.485 162.582C333.582 163.114 333.658 163.647 333.746 164.18L334.76 170.575C337.256 187.654 338.362 204.943 337.765 222.195C337.17 239.44 334.845 256.647 330.561 273.396C328.432 281.773 325.769 290.018 322.615 298.076L321.424 301.097L320.156 304.085C319.33 306.088 318.408 308.045 317.507 310.016C317.067 311.006 316.584 311.975 316.105 312.946L314.673 315.864L313.163 318.743C312.656 319.7 312.166 320.668 311.625 321.607C310.563 323.496 309.522 325.401 308.388 327.25C307.827 328.177 307.286 329.119 306.71 330.038L304.966 332.786C304.674 333.243 304.389 333.707 304.089 334.159L303.18 335.508L301.36 338.211L299.467 340.861L298.521 342.188L297.539 343.488L295.572 346.088L293.538 348.635L292.517 349.909C292.176 350.331 291.816 350.74 291.467 351.157L289.355 353.647L287.18 356.08L286.091 357.296L284.969 358.481L282.721 360.852L280.407 363.158C267.998 375.375 253.607 385.753 237.635 393.017C233.646 394.831 229.567 396.466 225.393 397.832C221.225 399.211 216.979 400.373 212.67 401.285C204.051 403.052 195.18 403.803 186.334 403.223C191.008 410.755 196.815 417.591 203.353 423.653C206.639 426.665 210.108 429.485 213.716 432.12C217.317 434.767 221.091 437.179 224.968 439.417C226.893 440.56 228.882 441.587 230.862 442.641L233.872 444.134C234.372 444.39 234.88 444.624 235.391 444.855L236.919 445.556L238.449 446.257L239.996 446.913C241.032 447.344 242.059 447.799 243.103 448.207L246.242 449.421C247.287 449.832 248.355 450.179 249.41 450.561L250.999 451.122C251.531 451.304 252.066 451.467 252.601 451.641C253.671 451.981 254.738 452.333 255.813 452.662C257.971 453.28 260.125 453.932 262.309 454.467C264.481 455.054 266.678 455.526 268.872 456.027C269.972 456.269 271.078 456.47 272.182 456.692L273.839 457.018C274.391 457.122 274.948 457.208 275.503 457.304L278.834 457.863L282.179 458.33L283.855 458.559L285.534 458.745L288.895 459.111L292.265 459.39C292.827 459.435 293.388 459.489 293.951 459.523L295.639 459.616L299.019 459.795L302.401 459.887L304.095 459.929H305.787L309.174 459.927L312.56 459.833L314.254 459.786C314.817 459.766 315.381 459.727 315.946 459.698L319.331 459.511C320.46 459.443 321.582 459.332 322.711 459.244C324.968 459.083 327.212 458.814 329.461 458.567C330.586 458.456 331.704 458.285 332.825 458.134L336.187 457.668L339.536 457.114C340.654 456.931 341.772 456.75 342.88 456.524C345.102 456.092 347.331 455.683 349.537 455.168L352.854 454.428L356.151 453.604C364.938 451.381 373.6 448.622 382.057 445.324C398.984 438.755 415.144 430.209 430.286 420.154C445.434 410.096 459.575 398.551 472.673 385.953C474.302 384.369 475.909 382.765 477.527 381.17C477.928 380.769 478.341 380.375 478.735 379.968L479.918 378.744L482.285 376.294C483.068 375.472 483.878 374.67 484.64 373.831L486.951 371.329L489.262 368.825C490.032 367.989 490.783 367.108 491.545 366.252C497.622 359.354 503.331 352.119 508.638 344.594C519.216 329.518 528.215 313.314 535.545 296.405C542.861 279.488 548.584 261.898 552.805 243.983C557.013 226.063 559.759 207.828 561.222 189.514C562.69 171.198 562.845 152.801 561.89 134.478C560.93 116.153 558.85 97.8995 555.764 79.8206C549.579 43.6586 539.418 8.19067 525.73 -25.9517C518.713 -43.4296 499.611 -76.5366 480.993 -106.584L439.171 -159.652L403.083 -133.742L421.954 -117.314C427.38 -110.952 432.629 -104.419 437.697 -97.7316C458.077 -70.8181 475.565 -41.442 489.904 -10.517Z" fill="#6529E2" fill-opacity="0.4"/>
<path d="M609.696 506.866C597.522 518.859 584.618 530.111 570.987 540.381C557.361 550.654 543.023 559.968 528.034 568.063C513.04 576.142 497.383 582.966 481.223 588.278C465.061 593.573 448.382 597.28 431.468 599.219C423.009 600.165 414.495 600.656 405.967 600.686C404.899 600.685 403.841 600.709 402.763 600.688L399.526 600.623L396.286 600.559C395.205 600.548 394.13 600.475 393.052 600.438L389.816 600.301L388.198 600.233C387.66 600.209 387.122 600.165 386.584 600.131L380.124 599.698C362.917 598.331 345.815 595.562 329.13 591.141C312.449 586.723 296.192 580.628 280.816 572.725C273.122 568.786 265.677 564.355 258.523 559.486L255.842 557.652L253.212 555.751C251.444 554.5 249.739 553.166 248.018 551.849C247.151 551.2 246.314 550.514 245.473 549.831L242.946 547.785L240.476 545.674C239.655 544.966 238.82 544.273 238.026 543.536C236.42 542.08 234.795 540.641 233.244 539.125C232.464 538.371 231.666 537.634 230.898 536.868L228.608 534.556C228.228 534.169 227.839 533.788 227.466 533.395L226.351 532.209L224.122 529.832L221.96 527.396L220.877 526.178L219.826 524.933L217.729 522.436L215.697 519.886L214.682 518.608C214.346 518.18 214.027 517.74 213.7 517.306L211.742 514.693L209.855 512.031L208.912 510.697L208.006 509.34L206.196 506.621L204.464 503.852C195.314 489.036 188.397 472.696 184.87 455.507C183.989 451.214 183.303 446.874 182.901 442.5C182.483 438.129 182.294 433.73 182.365 429.329C182.559 420.533 183.803 411.718 186.335 403.222C192.639 396.99 198.012 389.805 202.466 382.084C204.672 378.208 206.65 374.201 208.414 370.095C210.192 365.995 211.705 361.778 213.024 357.502C213.711 355.37 214.269 353.202 214.856 351.039L215.643 347.772C215.78 347.228 215.895 346.681 216.008 346.131L216.351 344.485L216.693 342.838L216.989 341.182C217.178 340.077 217.393 338.975 217.561 337.866L218.045 334.534C218.213 333.424 218.315 332.307 218.452 331.192L218.645 329.518C218.705 328.96 218.745 328.399 218.795 327.841C218.888 326.723 218.993 325.604 219.077 324.484C219.198 322.241 219.356 319.996 219.389 317.749C219.478 315.501 219.45 313.253 219.45 311.002C219.44 309.878 219.39 308.753 219.363 307.629L219.313 305.941C219.29 305.379 219.25 304.818 219.22 304.256L219.024 300.883L218.734 297.517L218.585 295.834L218.394 294.156L218.004 290.798L217.525 287.45C217.442 286.892 217.372 286.333 217.279 285.776L216.995 284.109L216.417 280.775L215.754 277.456L215.419 275.796L215.042 274.146L214.287 270.845L213.441 267.565L213.018 265.925C212.872 265.379 212.71 264.838 212.556 264.295L211.619 261.038C211.302 259.954 210.944 258.882 210.607 257.802C209.948 255.638 209.187 253.51 208.446 251.373C208.088 250.3 207.673 249.248 207.276 248.189L206.071 245.014L204.786 241.873C204.358 240.825 203.933 239.775 203.466 238.745C202.55 236.675 201.654 234.592 200.662 232.557L199.203 229.488L197.667 226.457C193.544 218.384 188.928 210.554 183.831 203.042C173.659 188.002 161.732 174.148 148.56 161.622C135.384 149.093 120.98 137.875 105.784 127.908C103.878 126.672 101.956 125.463 100.04 124.24C99.5602 123.938 99.0841 123.625 98.5983 123.331L97.1409 122.45L94.2261 120.687C93.2503 120.107 92.2898 119.496 91.3015 118.94L88.3478 117.243L85.3914 115.547C84.4059 114.982 83.3787 114.447 82.3752 113.894C74.2983 109.504 65.9744 105.548 57.4561 102.049C40.403 95.0906 22.6045 89.9245 4.4881 86.5405C-13.6338 83.1718 -32.0556 81.5076 -50.4593 81.3771C-68.8671 81.2633 -87.2556 82.6429 -105.436 85.2926C-123.62 87.9368 -141.589 91.8787 -159.239 96.8881C-176.891 101.9 -194.224 107.991 -211.164 115.023C-245.042 129.097 -277.357 146.897 -307.595 167.836C-298.806 177.356 -291.73 188.472 -283.332 198.394C-256.71 177.941 -227.943 160.101 -197.565 145.57C-182.142 138.195 -166.302 131.679 -150.129 126.155C-133.957 120.632 -117.449 116.091 -100.711 112.755C-83.9771 109.411 -67.0183 107.241 -49.9998 106.452C-32.9856 105.678 -15.9185 106.324 0.945892 108.549C17.8047 110.79 34.4401 114.687 50.5203 120.279C58.5513 123.098 66.4352 126.349 74.1304 130.021C75.0923 130.486 76.0556 130.925 77.0175 131.411L79.9059 132.874L82.7958 134.337C83.7646 134.817 84.7029 135.347 85.6579 135.85L88.513 137.378L89.9413 138.143C90.4174 138.398 90.8824 138.67 91.3529 138.934L96.9854 142.128C111.896 150.826 126.102 160.74 139.217 171.963C152.328 183.181 164.332 195.726 174.756 209.519C179.978 216.407 184.764 223.629 189.097 231.12L190.717 233.935L192.262 236.79C193.314 238.684 194.269 240.625 195.249 242.559C195.748 243.521 196.205 244.502 196.666 245.482L198.054 248.422L199.364 251.396C199.797 252.39 200.248 253.377 200.644 254.386C201.459 256.395 202.298 258.396 203.038 260.435C203.414 261.453 203.813 262.463 204.172 263.486L205.234 266.563C205.409 267.077 205.594 267.588 205.76 268.104L206.249 269.657L207.226 272.765L208.117 275.898L208.564 277.465L208.969 279.043L209.776 282.202L210.499 285.381L210.858 286.973C210.975 287.504 211.072 288.039 211.179 288.572L211.81 291.774L212.356 294.991L212.627 296.601L212.856 298.217L213.307 301.453L213.668 304.699C215.483 322.017 214.625 339.741 210.345 356.757C209.276 361.007 208.01 365.215 206.476 369.331C204.956 373.449 203.217 377.494 201.243 381.43C197.252 389.271 192.307 396.673 186.338 403.229C185.395 394.413 183.128 385.734 179.869 377.438C178.215 373.298 176.315 369.253 174.206 365.314C172.109 361.366 169.756 357.555 167.234 353.858C165.996 351.992 164.65 350.204 163.324 348.397L161.259 345.744C160.92 345.297 160.564 344.865 160.204 344.435L159.131 343.142L158.057 341.846L156.948 340.583C156.202 339.746 155.474 338.891 154.712 338.07L152.41 335.613C151.647 334.788 150.836 334.014 150.051 333.212L148.863 332.017C148.463 331.622 148.051 331.242 147.644 330.853C146.828 330.083 146.018 329.303 145.193 328.54C143.516 327.046 141.859 325.523 140.124 324.095C138.422 322.624 136.647 321.244 134.887 319.841C134.001 319.147 133.092 318.486 132.195 317.806L130.845 316.793C130.392 316.458 129.929 316.141 129.469 315.814L126.71 313.864L123.898 311.992L122.487 311.059L121.055 310.162L118.186 308.373L115.27 306.66C114.783 306.377 114.301 306.084 113.808 305.81L112.327 304.993L109.36 303.365L106.352 301.815L104.844 301.042L103.32 300.307L100.268 298.839L97.177 297.454L95.6294 296.761C95.113 296.533 94.5883 296.325 94.0664 296.106L90.9365 294.807C89.8913 294.379 88.8295 293.991 87.776 293.581C85.6731 292.748 83.5342 292.015 81.4008 291.262C80.3376 290.873 79.2577 290.541 78.182 290.192L74.9493 289.153L71.6917 288.2C70.6048 287.88 69.5194 287.557 68.4229 287.281C66.2339 286.706 64.0478 286.108 61.8367 285.614L58.5277 284.841L55.1992 284.154C46.3174 282.344 37.3174 281.071 28.2676 280.373C10.1664 278.947 -8.1026 279.634 -26.1065 282.124C-44.1174 284.613 -61.8688 288.88 -79.1357 294.547C-81.2899 295.268 -83.4344 296.016 -85.5844 296.75C-86.1202 296.937 -86.6615 297.114 -87.1945 297.309L-88.7921 297.895L-91.9887 299.075C-93.0505 299.476 -94.1263 299.847 -95.1784 300.273L-98.3458 301.525L-101.515 302.778C-102.571 303.197 -103.63 303.665 -104.688 304.106C-113.155 307.685 -121.437 311.725 -129.486 316.203C-145.558 325.197 -160.694 335.891 -174.637 347.945C-188.57 360.013 -201.356 373.378 -212.932 387.687C-224.498 402.007 -234.885 417.245 -244.147 433.11C-253.418 448.976 -261.54 465.483 -268.628 482.407C-275.715 499.332 -281.76 516.681 -286.824 534.309C-296.622 568.455 -302.744 603.636 -305.377 639.151C-297.815 639.516 -289.974 641.261 -283.713 642.314C-278.054 643.267 -272.375 644.17 -266.689 645.039C-266.686 644.784 -266.686 644.528 -266.682 644.273C-266.172 610.189 -262.159 576.041 -254.463 542.722C-250.611 526.064 -245.831 509.617 -240.066 493.529C-234.301 477.442 -227.558 461.704 -219.732 446.538C-211.913 431.371 -203.036 416.758 -193.043 402.961C-183.04 389.176 -171.894 376.235 -159.639 364.438C-147.376 352.655 -133.957 342.077 -119.56 332.992C-112.35 328.47 -104.892 324.334 -97.2215 320.607C-96.2583 320.145 -95.3144 319.665 -94.3345 319.215L-91.3905 317.869L-88.4451 316.521C-87.4666 316.063 -86.4658 315.66 -85.4775 315.226L-82.503 313.947L-81.0151 313.308C-80.5182 313.095 -80.0157 312.901 -79.516 312.698L-73.5073 310.286C-57.4105 304.052 -40.8015 299.126 -23.8496 295.87C-6.90475 292.614 10.3871 291.051 27.6707 291.5C36.3111 291.711 44.9418 292.473 53.5003 293.756L56.7094 294.245L59.906 294.816C62.0422 295.176 64.1561 295.638 66.2784 296.077C67.3416 296.285 68.3937 296.542 69.4472 296.792L72.6105 297.54L75.7516 298.37C76.7981 298.65 77.8517 298.912 78.8871 299.232C80.9663 299.847 83.054 300.438 85.1082 301.132C86.1381 301.472 87.1764 301.79 88.2007 302.148L91.2682 303.237C91.779 303.421 92.294 303.596 92.8006 303.787L94.3191 304.374L97.3574 305.547L100.362 306.803L101.867 307.432L103.354 308.098L106.325 309.438L109.262 310.855L110.731 311.566C111.22 311.804 111.697 312.064 112.181 312.312L115.078 313.816L117.935 315.395L119.363 316.188L120.769 317.016L123.58 318.681L126.343 320.424C141.015 329.803 154.335 341.523 164.97 355.48C167.627 358.965 170.128 362.578 172.389 366.344C174.66 370.101 176.739 373.982 178.585 377.978C182.226 385.988 184.932 394.469 186.335 403.223C178.856 398.464 170.657 394.824 162.138 392.2C157.869 390.911 153.521 389.876 149.128 389.068C144.735 388.246 140.287 387.709 135.824 387.376C133.593 387.18 131.354 387.118 129.115 387.028L125.755 386.988C125.194 386.975 124.635 386.983 124.074 386.997L122.393 387.029L120.711 387.061L119.031 387.142C117.911 387.203 116.79 387.239 115.671 387.323L112.316 387.591C111.196 387.675 110.084 387.825 108.967 387.938L107.291 388.123C106.733 388.19 106.18 388.276 105.623 388.351C104.513 388.509 103.397 388.655 102.286 388.824C100.072 389.204 97.8488 389.55 95.6502 390.016C93.4377 390.43 91.2529 390.957 89.0585 391.458C87.9633 391.717 86.8793 392.016 85.7883 392.294L84.1546 392.719C83.6105 392.864 83.0734 393.03 82.532 393.184L79.2869 394.125L76.0708 395.156L74.4621 395.677L72.8687 396.237L69.6818 397.366L66.5241 398.578C65.998 398.782 65.4691 398.976 64.9473 399.19L63.3857 399.839L60.2627 401.144L57.1744 402.529L55.6309 403.226L54.1069 403.96L51.056 405.432L48.0454 406.985L46.5394 407.762C46.0397 408.024 45.5484 408.305 45.0529 408.575L42.0853 410.213C41.0984 410.764 40.1337 411.351 39.1566 411.921C37.1939 413.045 35.2882 414.261 33.3686 415.459C32.4025 416.047 31.4684 416.686 30.5245 417.309L27.6985 419.188L24.9211 421.141C23.9939 421.791 23.0653 422.439 22.1645 423.123C20.3503 424.476 18.5195 425.812 16.7554 427.233L14.0876 429.339L11.474 431.512C4.52139 437.327 -2.08554 443.571 -8.27472 450.21C-20.6739 463.474 -31.5281 478.186 -40.807 493.813C-50.0914 509.447 -57.8227 525.985 -64.159 543.019C-64.9391 545.152 -65.69 547.295 -66.4562 549.434C-66.6449 549.97 -66.8434 550.503 -67.0225 551.041L-67.5582 552.658L-68.6284 555.892C-68.9768 556.972 -69.3585 558.045 -69.6805 559.133L-70.6757 562.39L-71.6709 565.649C-72.0027 566.736 -72.2969 567.856 -72.612 568.958C-75.0952 577.808 -77.0981 586.804 -78.6152 595.888C-81.605 614.061 -82.6807 632.564 -81.9478 650.978C-81.1997 669.396 -78.7234 687.726 -74.7551 705.698C-70.7701 723.669 -65.3333 741.291 -58.7041 758.425C-52.0805 775.565 -44.2382 792.206 -35.4271 808.3C-26.6118 824.394 -16.818 839.937 -6.19269 854.888C15.0689 884.787 39.6146 912.332 66.76 937.154C82.3446 951.389 98.8218 964.7 116.076 977.016C130.088 978.976 144.368 977.152 158.437 976.265C171.632 975.434 184.727 976.253 197.876 977.412C201.708 977.749 205.591 978.138 209.502 978.529C198.573 974.024 187.798 969.048 177.221 963.629C147.18 948.219 118.677 929.341 92.3412 907.7C66.0105 886.05 41.8132 861.622 20.5627 834.831C9.94162 821.434 0.0630798 807.441 -8.92154 792.903C-17.9048 778.365 -26.0038 763.281 -32.9828 747.706C-39.9659 732.137 -45.8566 716.085 -50.4121 699.67C-54.9523 683.255 -58.1211 666.471 -59.7035 649.535C-61.2691 632.6 -61.172 615.515 -59.2982 598.593C-58.3376 590.138 -56.9233 581.726 -55.055 573.406C-54.8163 572.365 -54.6025 571.329 -54.343 570.282L-53.5601 567.141L-52.7773 563.997C-52.5246 562.946 -52.2165 561.914 -51.9389 560.87L-51.0853 557.747L-50.6578 556.184C-50.5148 555.663 -50.3524 555.15 -50.1997 554.632L-48.3398 548.43C-43.1777 531.959 -36.6735 515.902 -28.6508 500.619C-20.6308 485.34 -11.0716 470.846 0.0547791 457.614C5.60822 450.99 11.5836 444.718 17.9227 438.826L20.3059 436.622L22.746 434.48C24.3589 433.034 26.0398 431.669 27.7054 430.284C28.5313 429.583 29.3877 428.919 30.24 428.252L32.7967 426.245L35.4048 424.306C36.2778 423.663 37.1384 423.002 38.0337 422.393C39.8103 421.151 41.5745 419.888 43.3983 418.713C44.3061 418.121 45.2028 417.506 46.1202 416.93L48.8838 415.21C49.346 414.926 49.8026 414.631 50.269 414.355L51.6737 413.533L54.4872 411.889L57.3437 410.321L58.7734 409.537L60.2211 408.791L63.122 407.301L66.0605 405.888L67.5317 405.183C68.0231 404.95 68.5242 404.739 69.0197 404.514L72.0012 403.187L75.0159 401.938L76.5261 401.315L78.0501 400.733L81.1038 399.574L84.1893 398.501C100.669 392.877 118.139 389.771 135.681 390.158C140.063 390.254 144.447 390.551 148.8 391.131C153.154 391.697 157.484 392.491 161.76 393.54C170.294 395.688 178.609 398.861 186.329 403.222C177.946 406.102 169.988 410.242 162.623 415.267C158.956 417.802 155.435 420.554 152.063 423.487C148.682 426.409 145.49 429.551 142.446 432.834C140.902 434.456 139.457 436.166 137.99 437.861L135.864 440.464C135.504 440.894 135.161 441.337 134.823 441.784L133.8 443.117L132.775 444.453L131.791 445.816C131.142 446.729 130.47 447.629 129.838 448.556L127.955 451.346C127.321 452.273 126.746 453.236 126.138 454.18L125.239 455.604C124.943 456.082 124.664 456.569 124.375 457.05C123.806 458.018 123.224 458.981 122.665 459.954C121.582 461.922 120.467 463.875 119.46 465.885C118.405 467.873 117.455 469.91 116.479 471.938C115.998 472.956 115.557 473.99 115.094 475.016L114.406 476.558C114.183 477.074 113.976 477.596 113.76 478.116L112.473 481.239L111.274 484.397L110.677 485.979L110.122 487.576L109.017 490.771L107.995 493.994C107.827 494.532 107.648 495.067 107.49 495.608L107.024 497.233L106.096 500.488L105.254 503.767L104.836 505.408L104.46 507.058L103.708 510.36L103.046 513.683L102.715 515.344C102.608 515.898 102.522 516.456 102.424 517.013L101.855 520.354C101.67 521.47 101.527 522.59 101.362 523.708C101.016 525.945 100.78 528.192 100.519 530.439C100.376 531.562 100.294 532.689 100.192 533.816L99.8989 537.199L99.6949 540.587C99.6254 541.717 99.5519 542.846 99.5255 543.978C99.452 546.24 99.3548 548.504 99.3659 550.769L99.3492 554.169L99.4187 557.566C99.631 566.627 100.392 575.687 101.726 584.665C104.366 602.63 109.1 620.287 115.532 637.286C121.967 654.292 130.076 670.648 139.443 686.222C140.625 688.161 141.832 690.084 143.027 692.018C143.33 692.5 143.621 692.987 143.931 693.463L144.861 694.89L146.724 697.743C147.351 698.69 147.952 699.656 148.6 700.587L150.525 703.397L152.452 706.206C153.096 707.143 153.787 708.072 154.452 709.004C159.824 716.464 165.608 723.64 171.763 730.49C184.108 744.157 197.903 756.534 212.757 767.444C227.623 778.343 243.499 787.835 260.023 795.937C276.557 804.027 293.726 810.763 311.253 816.262C328.784 821.77 346.684 826.014 364.76 829.159C382.839 832.302 401.098 834.337 419.41 835.35C454.522 837.285 489.82 835.504 524.683 830.293L602.941 819.36L602.015 771.242L522.198 791.229C522.178 791.233 522.157 791.239 522.137 791.243C488.795 798.33 454.609 802.018 420.413 801.928C403.316 801.879 386.217 800.879 369.249 798.838C352.283 796.796 335.44 793.725 318.913 789.47C302.385 785.222 286.162 779.82 270.489 773.147C254.825 766.463 239.726 758.476 225.498 749.154C211.282 739.82 197.983 729.092 185.923 717.076C179.91 711.052 174.217 704.702 168.878 698.054C168.213 697.219 167.536 696.405 166.879 695.549L164.912 692.978L162.943 690.406C162.278 689.554 161.663 688.669 161.02 687.802L159.11 685.187L158.155 683.879C157.837 683.443 157.536 682.994 157.227 682.553L153.537 677.231C143.878 662.925 135.379 647.829 128.432 632.026C121.487 616.231 116.115 599.72 112.707 582.77C110.991 574.299 109.814 565.715 109.158 557.086L108.921 553.848L108.768 550.605C108.643 548.443 108.624 546.279 108.581 544.112C108.548 543.03 108.562 541.947 108.571 540.864L108.596 537.614L108.707 534.366C108.749 533.283 108.77 532.198 108.85 531.116C108.986 528.952 109.1 526.786 109.318 524.629C109.421 523.549 109.5 522.466 109.621 521.388L109.999 518.155C110.065 517.616 110.12 517.075 110.195 516.538L110.43 514.927L110.898 511.702L111.454 508.493L111.732 506.887L112.051 505.29L112.695 502.093L113.422 498.914L113.789 497.324C113.914 496.795 114.059 496.272 114.194 495.744L115.016 492.585L115.919 489.449L116.375 487.881L116.87 486.326L117.867 483.216L118.952 480.135C124.83 463.743 133.293 448.148 144.533 434.674C147.34 431.308 150.306 428.066 153.474 425.025C156.631 421.974 159.951 419.084 163.438 416.394C170.436 411.061 178.102 406.538 186.325 403.222C183.351 411.572 181.627 420.376 180.963 429.265C180.658 433.712 180.615 438.182 180.805 442.646C180.981 447.112 181.446 451.566 182.117 455.993C182.422 458.212 182.859 460.408 183.27 462.611L183.979 465.896C184.092 466.446 184.225 466.99 184.362 467.533L184.768 469.165L185.173 470.797L185.624 472.417C185.934 473.494 186.218 474.581 186.549 475.653L187.556 478.864C187.887 479.937 188.281 480.988 188.64 482.051L189.193 483.643C189.381 484.172 189.588 484.694 189.785 485.219C190.188 486.268 190.577 487.322 190.989 488.367C191.852 490.441 192.684 492.531 193.629 494.57C194.524 496.634 195.525 498.648 196.502 500.674C196.998 501.685 197.531 502.674 198.044 503.677L198.821 505.176C199.085 505.674 199.364 506.161 199.636 506.654L201.275 509.608L202.997 512.514L203.861 513.966L204.763 515.394L206.572 518.251L208.454 521.059C208.771 521.527 209.077 522 209.402 522.461L210.382 523.839L212.349 526.593L214.387 529.295L215.41 530.644L216.466 531.967L218.58 534.614L220.765 537.203L221.858 538.498C222.226 538.927 222.608 539.343 222.981 539.766L225.238 542.295C225.995 543.135 226.783 543.944 227.555 544.772C229.087 546.434 230.696 548.022 232.292 549.627C233.082 550.439 233.912 551.206 234.728 551.988L237.19 554.325L239.711 556.598C240.551 557.355 241.389 558.119 242.257 558.843C243.98 560.31 245.69 561.8 247.467 563.202L250.113 565.334L252.812 567.398C260.029 572.882 267.586 577.934 275.437 582.49C291.127 591.627 307.885 598.935 325.186 604.503C342.494 610.075 360.338 613.934 378.354 616.32C380.607 616.606 382.864 616.861 385.121 617.132C385.684 617.196 386.249 617.272 386.814 617.326L388.509 617.488L391.901 617.812C393.033 617.912 394.162 618.044 395.295 618.117L398.691 618.363L402.089 618.609C403.223 618.689 404.38 618.728 405.525 618.789C414.705 619.24 423.921 619.191 433.114 618.65C451.497 617.52 469.775 614.453 487.565 609.641C505.354 604.813 522.675 598.32 539.313 590.451C555.947 582.567 571.916 573.345 587.145 563.07C602.381 552.797 616.861 541.449 630.59 529.277C644.319 517.103 657.293 504.096 669.504 490.41C692.724 464.371 713.173 435.89 730.744 405.652C719.112 400.133 707.902 393.647 696.549 387.48C681.797 416.179 664.241 443.542 644 468.789C633.313 482.128 621.87 494.871 609.696 506.866Z" fill="#6529E2" fill-opacity="0.4"/>
</g>
<mask id="mask1_2091_10982" style="mask-type:luminance" maskUnits="userSpaceOnUse" x="-160" y="-116" width="695" height="1042">
<path d="M-160 -115.012L-160 926H534.008L534.008 -115.012H-160Z" fill="white"/>
</mask>
<g mask="url(#mask1_2091_10982)">
<path d="M-22.8291 -287.053C-51.5874 -284.855 -80.6039 -279.482 -108.954 -270.585L-58.7288 -135.111C-42.1184 -142.864 -24.2338 -148.774 -5.4595 -152.718C3.92348 -154.707 13.5341 -156.161 23.2946 -157.177C28.1791 -157.656 33.0982 -158.041 38.0534 -158.297C39.2901 -158.37 40.5324 -158.4 41.7747 -158.455C43.017 -158.508 44.2592 -158.561 45.507 -158.579L49.2491 -158.665L53.0023 -158.684C73.0425 -158.716 93.4713 -156.856 113.845 -153.161C134.218 -149.461 154.55 -144.002 174.463 -136.867C214.291 -122.591 252.498 -101.766 286.469 -75.2657C287.541 -74.4482 288.587 -73.6029 289.64 -72.7632C290.689 -71.9193 291.752 -71.0892 292.792 -70.2328C294.867 -68.5186 296.961 -66.8183 299 -65.0597C301.067 -63.3275 303.083 -61.5425 305.112 -59.7644C306.131 -58.8788 307.113 -57.9614 308.118 -57.062C309.118 -56.1569 310.127 -55.2589 311.102 -54.3331L314.06 -51.5737L316.978 -48.774L318.437 -47.3721L319.872 -45.9495L322.744 -43.0985L325.566 -40.2031L326.977 -38.7526L328.364 -37.2814C329.287 -36.2986 330.222 -35.3256 331.138 -34.3345L333.867 -31.3489C348.343 -15.3562 361.41 1.93848 372.603 20.399C383.784 38.8583 393.109 58.4695 400.178 78.9594C407.243 99.4465 411.988 120.818 414.251 142.639C414.504 145.368 414.791 148.101 414.964 150.842L415.115 152.899C415.169 153.585 415.218 154.27 415.245 154.957L415.458 159.081C415.545 160.457 415.553 161.834 415.603 163.212L415.666 165.28L415.698 166.314L415.707 167.35C415.727 170.109 415.776 172.875 415.712 175.642C415.67 181.18 415.392 186.722 415.037 192.277C414.808 195.049 414.637 197.833 414.331 200.605L413.91 204.773L413.403 208.936C412.044 220.047 409.982 231.126 407.411 242.148L406.934 244.218L406.413 246.276L405.37 250.4C404.653 253.133 403.907 255.847 403.114 258.558C401.532 263.976 399.795 269.356 397.903 274.688C394.12 285.35 389.72 295.817 384.676 305.968C379.62 316.112 373.916 325.937 367.517 335.286C361.117 344.631 354.016 353.501 346.168 361.665C338.324 369.831 329.716 377.277 320.37 383.729C311.029 390.183 300.944 395.634 290.266 399.826C279.592 404.019 268.335 406.959 256.78 408.54C251.003 409.32 245.155 409.769 239.275 409.907C237.806 409.939 236.333 409.986 234.86 409.953L232.649 409.932C231.912 409.925 231.172 409.925 230.437 409.885L226.005 409.704L221.573 409.389C215.664 408.898 209.758 408.125 203.873 407.107C197.999 406.043 192.151 404.735 186.338 403.226C182.93 408.168 179.68 413.237 176.632 418.45C173.628 423.686 170.828 429.06 168.278 434.579L166.414 438.744L164.674 442.971C164.375 443.673 164.113 444.389 163.845 445.104L163.039 447.249C162.482 448.674 162.005 450.126 161.51 451.575C159.546 457.376 157.881 463.308 156.559 469.343C153.935 481.415 152.726 493.905 153.031 506.446C153.331 518.988 155.156 531.565 158.344 543.816C161.527 556.072 166.052 567.998 171.632 579.393C177.209 590.796 183.816 601.683 191.188 612.006C198.562 622.33 206.699 632.095 215.418 641.301C224.149 650.498 233.46 659.143 243.244 667.239C248.137 671.287 253.149 675.197 258.275 678.969C260.835 680.854 263.434 682.705 266.045 684.517L269.971 687.193L271.938 688.531L273.931 689.831C284.551 696.783 295.551 703.292 306.97 709.128L311.258 711.312L315.591 713.413C318.474 714.837 321.418 716.132 324.346 717.48C330.24 720.077 336.194 722.591 342.252 724.864C345.268 726.041 348.325 727.109 351.381 728.197L352.528 728.603L353.681 728.988L355.991 729.756C357.533 730.258 359.067 730.799 360.624 731.264L365.284 732.702C366.06 732.947 366.841 733.173 367.624 733.394L369.971 734.064C373.097 734.983 376.253 735.785 379.409 736.614C404.706 743.012 430.922 746.534 457.277 747.031C483.636 747.532 510.106 745.079 536.055 739.991C562.011 734.894 587.43 727.15 611.951 717.225L616.539 715.341C618.066 714.704 619.579 714.043 621.1 713.394L623.381 712.414L625.645 711.405L630.173 709.373L634.666 707.272L636.911 706.216L639.141 705.131C640.626 704.403 642.118 703.687 643.597 702.949L648.022 700.707C649.503 699.967 650.962 699.189 652.427 698.42C653.887 697.644 655.362 696.889 656.811 696.093C659.714 694.51 662.627 692.933 665.496 691.285C668.387 689.67 671.23 687.982 674.087 686.306C675.515 685.467 676.919 684.596 678.338 683.741C679.754 682.882 681.172 682.027 682.569 681.14L686.776 678.498L690.947 675.799L693.03 674.446L695.096 673.066L699.224 670.297L703.311 667.47L705.353 666.051L707.377 664.608L711.421 661.712L715.427 658.763C716.769 657.786 718.087 656.779 719.408 655.776C720.727 654.769 722.058 653.776 723.367 652.755C725.978 650.711 728.608 648.677 731.18 646.58C736.365 642.427 741.441 638.135 746.463 633.769L750.21 630.471C751.457 629.37 752.68 628.243 753.918 627.127C756.4 624.905 758.815 622.613 761.257 620.342L764.87 616.885L766.674 615.151L768.458 613.397L772.018 609.877L775.531 606.307L777.287 604.518L779.019 602.706L782.481 599.077C784.75 596.621 787.054 594.189 789.281 591.69C793.792 586.734 798.163 581.646 802.485 576.501C819.707 555.866 835.388 533.714 849.244 510.162C863.091 486.607 875.055 461.606 884.699 435.326L886.486 430.387L888.198 425.41C888.776 423.752 889.319 422.081 889.861 420.407C890.398 418.732 890.957 417.063 891.473 415.378C893.572 408.649 895.506 401.842 897.299 394.972C900.829 381.214 903.739 367.184 905.851 352.912C910.108 324.386 911.323 294.901 908.96 265.281L765.705 284.103C769.567 302.022 771.349 320.773 771.017 339.955C770.869 349.545 770.147 359.239 768.966 368.98C768.345 373.849 767.626 378.731 766.774 383.616C766.57 384.839 766.323 386.058 766.101 387.281C765.876 388.502 765.651 389.726 765.39 390.946L764.642 394.615L763.826 398.278C759.398 417.823 753.04 437.324 744.903 456.365C736.762 475.403 726.916 494.011 715.529 511.838C692.748 547.491 663.943 580.105 630.547 607.328C629.512 608.192 628.456 609.023 627.402 609.863C626.346 610.697 625.301 611.551 624.235 612.372C622.101 614.013 619.979 615.679 617.811 617.275C615.662 618.906 613.473 620.472 611.29 622.055C610.2 622.852 609.087 623.606 607.986 624.386C606.883 625.157 605.782 625.943 604.662 626.688L601.314 628.958L597.936 631.179L596.244 632.288L594.538 633.37L591.119 635.536L587.669 637.643L585.941 638.695L584.199 639.72C583.036 640.401 581.878 641.097 580.708 641.769L577.191 643.765C558.377 654.318 538.609 663.21 518.122 670.014C497.636 676.808 476.443 681.534 454.894 683.868C433.348 686.197 411.457 686.068 389.679 683.418C386.963 683.057 384.234 682.73 381.523 682.288L379.484 681.977C378.804 681.877 378.124 681.77 377.448 681.647L373.381 680.936C372.02 680.716 370.676 680.417 369.321 680.16L367.291 679.761L366.275 679.562L365.264 679.34C362.569 678.746 359.862 678.175 357.179 677.498C351.789 676.227 346.448 674.721 341.111 673.14C338.46 672.3 335.784 671.513 333.15 670.598L329.18 669.26L325.235 667.84C314.706 664.044 304.362 659.568 294.189 654.608L292.278 653.684L290.386 652.718L286.598 650.783C284.093 649.477 281.614 648.143 279.148 646.769C274.217 644.021 269.357 641.129 264.58 638.099C255.027 632.038 245.802 625.418 237.028 618.242C228.264 611.057 219.954 603.309 212.265 594.989C204.578 586.669 197.51 577.773 191.297 568.306C185.082 558.842 179.738 548.793 175.527 538.244C171.313 527.701 168.244 516.656 166.534 505.312C164.819 493.973 164.459 482.343 165.49 470.727C166.015 464.921 166.878 459.12 168.052 453.357C168.349 451.918 168.628 450.47 168.99 449.042L169.503 446.89C169.673 446.173 169.837 445.452 170.041 444.743L171.203 440.463L172.497 436.212C174.291 430.562 176.358 424.975 178.659 419.465C181.004 413.975 183.58 408.566 186.345 403.235C188.084 408.98 190.02 414.68 192.197 420.314C194.416 425.927 196.873 431.467 199.598 436.902L201.692 440.957L203.912 444.953C204.274 445.625 204.671 446.276 205.061 446.931L206.235 448.899C207.003 450.223 207.84 451.501 208.665 452.792C211.976 457.945 215.575 462.944 219.47 467.741C227.272 477.32 236.283 486.053 246.279 493.633C256.272 501.219 267.244 507.633 278.809 512.778C290.375 517.932 302.52 521.829 314.91 524.572C327.302 527.322 339.933 528.944 352.6 529.618C365.268 530.288 377.977 530.016 390.612 528.939C403.246 527.848 415.809 525.957 428.24 523.356C434.455 522.054 440.638 520.573 446.782 518.917C449.853 518.09 452.92 517.213 455.964 516.302L460.504 514.9L462.776 514.197L465.036 513.449C477.094 509.479 489.04 504.939 500.723 499.649L505.104 497.658L509.45 495.581C512.361 494.215 515.209 492.721 518.088 491.272C523.794 488.284 529.471 485.197 535.025 481.875C537.826 480.251 540.566 478.526 543.323 476.816L544.356 476.172L545.375 475.51L547.415 474.183C548.77 473.29 550.149 472.429 551.483 471.501L555.513 468.754C556.189 468.301 556.852 467.831 557.511 467.357L559.499 465.94C562.167 464.07 564.761 462.102 567.377 460.15C588.152 444.363 607.249 426.061 624.071 405.765C640.896 385.469 655.484 363.246 667.685 339.784C679.883 316.313 689.677 291.612 697.205 266.253L698.593 261.489C699.047 259.898 699.473 258.304 699.915 256.709L700.57 254.316L701.192 251.916L702.426 247.109L703.585 242.287L704.159 239.873L704.701 237.454C705.059 235.84 705.428 234.227 705.775 232.609L706.781 227.75C707.127 226.131 707.427 224.507 707.739 222.881C708.043 221.256 708.373 219.632 708.654 218.002C709.226 214.745 709.809 211.486 710.31 208.216C710.85 204.948 711.302 201.672 711.774 198.394C712.009 196.755 712.203 195.113 712.419 193.471C712.63 191.829 712.846 190.185 713.023 188.54L713.58 183.605L714.071 178.662L714.311 176.189L714.521 173.714L714.93 168.76L715.269 163.8L715.433 161.319L715.566 158.837L715.823 153.869L716.014 148.899C716.087 147.24 716.123 145.584 716.161 143.925C716.196 142.267 716.25 140.607 716.268 138.948C716.298 135.631 716.347 132.308 716.311 128.988C716.298 122.343 716.107 115.699 715.824 109.052L715.581 104.066C715.499 102.403 715.38 100.744 715.28 99.0815C715.09 95.7558 714.804 92.4384 714.551 89.1141L714.1 84.1339L713.87 81.6425L713.609 79.1537L713.062 74.161L712.462 69.1877L712.16 66.7004L711.824 64.2173L711.144 59.2468C710.639 55.9419 710.174 52.6246 709.607 49.3239C708.545 42.7086 707.293 36.1169 705.964 29.5308C700.57 3.20013 693.026 -22.8709 683.253 -48.3882C673.47 -73.8999 661.383 -98.8412 646.85 -122.766L644.103 -127.244L641.278 -131.686C640.343 -133.171 639.375 -134.638 638.402 -136.105C637.428 -137.57 636.473 -139.048 635.476 -140.501C631.525 -146.338 627.406 -152.094 623.153 -157.779C614.599 -169.116 605.444 -180.14 595.601 -190.689C575.953 -211.803 553.66 -231.138 529.028 -247.756L454.898 -168.908C520.597 -115.012 566.322 -18.5861 576.136 -0.353149C585.945 17.8826 594.353 37.1829 601.192 57.2009C614.863 97.2396 622.402 140.096 622.863 183.179C622.892 184.526 622.884 185.871 622.883 187.218C622.877 188.564 622.892 189.913 622.87 191.258C622.823 193.95 622.801 196.648 622.698 199.338C622.633 202.035 622.493 204.722 622.369 207.416C622.312 208.764 622.208 210.105 622.132 211.452C622.047 212.797 621.974 214.145 621.86 215.487L621.547 219.52L621.177 223.546L620.989 225.562L620.773 227.571L620.334 231.594L619.83 235.605L619.575 237.614L619.291 239.615C619.098 240.949 618.92 242.289 618.716 243.621L618.083 247.616C614.605 268.905 609.232 289.904 601.776 310.164C594.316 330.415 584.797 349.933 573.186 368.236C561.574 386.534 547.823 403.566 532.174 418.943C530.199 420.842 528.241 422.771 526.206 424.614L524.692 426.015C524.189 426.484 523.683 426.95 523.164 427.4L520.072 430.137C519.051 431.063 517.981 431.929 516.934 432.827L515.356 434.165L514.566 434.836L513.764 435.488C511.618 437.224 509.485 438.986 507.283 440.661C502.928 444.081 498.421 447.321 493.857 450.505C491.547 452.054 489.264 453.657 486.906 455.145L483.384 457.414L479.814 459.614C470.28 465.48 460.332 470.774 450.112 475.636L448.198 476.554L446.263 477.43L442.388 479.185C439.805 480.329 437.218 481.437 434.604 482.508C429.381 484.65 424.091 486.647 418.744 488.492C408.048 492.181 397.122 495.267 386.04 497.653C374.957 500.025 363.719 501.691 352.42 502.517C341.122 503.34 329.762 503.319 318.485 502.272C307.21 501.231 296.022 499.144 285.149 495.86C274.278 492.581 263.729 488.094 253.794 482.358C243.86 476.629 234.542 469.659 226.103 461.612C221.891 457.581 217.893 453.289 214.12 448.778C213.181 447.648 212.223 446.527 211.332 445.354L209.97 443.612C209.516 443.03 209.056 442.453 208.627 441.852L206.005 438.275L203.488 434.615C200.189 429.689 197.11 424.589 194.237 419.354C191.407 414.097 188.784 408.712 186.338 403.225C191.914 405.448 197.579 407.489 203.34 409.3C209.112 411.064 214.975 412.598 220.923 413.856L225.398 414.747L229.906 415.503C230.657 415.639 231.414 415.735 232.17 415.838L234.44 416.147C235.954 416.372 237.475 416.515 238.998 416.675C245.091 417.299 251.243 417.602 257.421 417.548C269.774 417.421 282.221 415.821 294.38 412.731C306.541 409.649 318.395 405.07 329.63 399.236C340.87 393.406 351.491 386.34 361.36 378.364C371.235 370.39 380.38 361.525 388.804 352.042C397.227 342.555 404.938 332.45 411.974 321.9C418.998 311.342 425.353 300.342 431.069 289.001C433.927 283.329 436.623 277.572 439.159 271.737C440.427 268.821 441.654 265.875 442.839 262.927L444.574 258.503L445.442 256.288L446.265 254.055C450.679 242.153 454.577 229.982 457.725 217.55L458.901 212.883L459.987 208.191C460.733 205.063 461.341 201.904 462.003 198.751C463.223 192.427 464.35 186.063 465.218 179.65C465.694 176.448 466.055 173.229 466.435 170.009L466.577 168.8L466.693 167.59L466.928 165.168C467.074 163.552 467.261 161.936 467.368 160.315L467.733 155.452C467.8 154.64 467.846 153.829 467.886 153.017L468.018 150.58C468.219 147.328 468.298 144.073 468.402 140.811C469.011 114.726 466.61 88.3826 461.23 62.5781C455.853 36.7693 447.572 11.5074 436.836 -12.6593C426.091 -36.8302 412.884 -59.8893 397.752 -81.5854L394.894 -85.6412C393.934 -86.9875 392.952 -88.3159 391.979 -89.6539L390.516 -91.6582L389.028 -93.6417L386.04 -97.6031L382.992 -101.516L381.462 -103.47L379.909 -105.402C378.87 -106.689 377.84 -107.984 376.79 -109.262L373.62 -113.078C372.568 -114.358 371.487 -115.606 370.411 -116.862C369.33 -118.112 368.265 -119.384 367.167 -120.619C364.977 -123.097 362.791 -125.586 360.548 -128.016C358.33 -130.475 356.051 -132.871 353.783 -135.284C352.646 -136.488 351.485 -137.664 350.336 -138.856C349.184 -140.044 348.033 -141.238 346.858 -142.401L343.346 -145.914L339.787 -149.38L338.004 -151.111L336.199 -152.817L332.581 -156.226L328.915 -159.582L327.077 -161.257L325.219 -162.909L321.496 -166.209L317.729 -169.458C316.478 -170.547 315.204 -171.609 313.933 -172.674C312.658 -173.734 311.394 -174.813 310.107 -175.861C307.532 -177.953 304.965 -180.064 302.347 -182.104C297.143 -186.236 291.83 -190.23 286.457 -194.153L282.408 -197.071C281.056 -198.044 279.685 -198.985 278.323 -199.943C275.604 -201.867 272.833 -203.711 270.076 -205.587L265.9 -208.339L263.809 -209.712L261.702 -211.059L257.476 -213.748L253.215 -216.38L251.081 -217.694L248.93 -218.979L244.621 -221.546C241.721 -223.212 238.838 -224.916 235.905 -226.532C230.071 -229.825 224.138 -232.957 218.158 -236.024C194.209 -248.224 169.122 -258.581 143.078 -266.849C117.033 -275.107 89.9971 -281.207 62.2285 -284.762L57.0165 -285.406L51.7837 -285.966C50.0389 -286.162 48.2886 -286.319 46.537 -286.473C44.7839 -286.625 43.0336 -286.799 41.275 -286.927C34.2475 -287.477 27.1811 -287.846 20.0842 -288.065C5.8806 -288.455 -8.44512 -288.172 -22.8291 -287.053Z" fill="#6529E2" fill-opacity="0.4"/>
<path d="M600.348 820.89C592.757 826.753 584.729 832.233 576.377 837.383C572.184 839.932 567.919 842.414 563.567 844.795C562.483 845.397 561.377 845.963 560.283 846.553C559.188 847.139 558.09 847.726 556.974 848.284L553.64 849.986L550.267 851.632C532.226 860.357 513.015 867.544 493.055 873.055C473.094 878.559 452.407 882.464 431.37 884.675C389.292 889.094 345.834 886.907 303.728 877.771C302.408 877.499 301.098 877.192 299.785 876.891C298.474 876.586 297.156 876.301 295.848 875.979C293.235 875.335 290.61 874.713 288.01 874.012C285.395 873.349 282.807 872.615 280.207 871.894C278.905 871.537 277.622 871.139 276.326 870.764C275.034 870.381 273.734 870.012 272.453 869.601L268.591 868.399L264.747 867.142L262.825 866.511L260.913 865.852L257.089 864.529L253.29 863.144L251.39 862.449L249.503 861.726C248.245 861.241 246.979 860.769 245.726 860.275L241.973 858.769C221.991 850.641 202.714 840.729 184.621 828.953C166.537 817.173 149.626 803.55 134.368 788.157C119.112 772.763 105.565 755.567 94.0587 736.89C92.647 734.542 91.2021 732.204 89.8571 729.809L88.8286 728.021C88.483 727.427 88.1415 726.828 87.8167 726.223L85.836 722.601C85.1614 721.399 84.5563 720.163 83.9122 718.943L82.9587 717.107L82.4812 716.188L82.0231 715.261C80.8086 712.783 79.5649 710.311 78.4226 707.79C76.056 702.784 73.9019 697.669 71.8115 692.511C70.8163 689.914 69.7614 687.331 68.8342 684.701L67.4045 680.763L66.0554 676.793C62.459 666.193 59.5109 655.316 57.0444 644.269L56.5766 642.198L56.1519 640.116L55.3025 635.948C54.7625 633.175 54.2573 630.406 53.7951 627.62C52.8693 622.051 52.1003 616.449 51.4909 610.825C50.2736 599.577 49.6962 588.238 49.8378 576.902C49.9919 565.57 50.8677 554.243 52.5778 543.043C54.2892 531.846 56.839 520.775 60.3659 510.013C63.8901 499.252 68.415 488.809 74.0365 478.94C79.6524 469.073 86.3746 459.785 94.1766 451.375C101.973 442.965 110.841 435.433 120.566 428.995C125.432 425.786 130.507 422.843 135.743 420.169C137.055 419.502 138.361 418.819 139.702 418.211L141.704 417.272C142.371 416.958 143.036 416.638 143.718 416.353L147.789 414.593L151.918 412.954C157.455 410.833 163.112 408.966 168.855 407.329C174.609 405.739 180.445 404.381 186.337 403.218C191.55 400.245 196.677 397.087 201.687 393.713C206.666 390.3 211.519 386.672 216.211 382.806L219.698 379.862L223.1 376.81C223.674 376.307 224.221 375.776 224.772 375.248L226.43 373.666C227.55 372.624 228.609 371.523 229.684 370.43C233.972 366.055 238.044 361.435 241.853 356.571C249.457 346.834 255.965 336.105 261.131 324.673C266.303 313.243 270.115 301.12 272.557 288.7C275.007 276.277 276.105 263.568 276.022 250.881C275.945 238.187 274.716 225.512 272.553 213.013C270.389 200.511 267.295 188.183 263.434 176.104C259.559 164.03 254.921 152.202 249.619 140.662C246.967 134.893 244.148 129.195 241.166 123.573C239.677 120.764 238.139 117.968 236.573 115.204L234.195 111.089L233.005 109.031L231.772 106.995C225.219 96.1224 218.133 85.4861 210.377 75.2731L207.461 71.4449L204.468 67.671C202.489 65.1378 200.399 62.6921 198.346 60.209C194.162 55.3107 189.89 50.4637 185.416 45.7875C183.209 43.4182 180.918 41.1307 178.636 38.8239L177.78 37.9604L176.906 37.1138L175.159 35.4204C173.987 34.2975 172.84 33.1455 171.64 32.0518L168.065 28.7344C167.472 28.1777 166.867 27.635 166.258 27.0964L164.432 25.4739C162.016 23.2892 159.52 21.1974 157.036 19.082C137.021 2.34119 114.929 -12.2052 91.3978 -24.088C67.8668 -35.975 42.9547 -45.2511 17.3666 -51.9247C-8.2298 -58.5941 -34.4924 -62.6456 -60.8911 -64.3418L-65.8436 -64.6361C-67.4953 -64.7249 -69.1456 -64.7845 -70.7988 -64.8595L-73.2778 -64.965L-75.7567 -65.0386L-80.7175 -65.1719L-85.6769 -65.2288L-88.1587 -65.251L-90.6377 -65.2413C-92.2908 -65.2302 -93.9467 -65.2329 -95.5998 -65.2094L-100.559 -65.1094C-102.215 -65.0844 -103.865 -65.0178 -105.519 -64.9595C-107.17 -64.8943 -108.828 -64.854 -110.478 -64.7666C-113.78 -64.5986 -117.089 -64.4418 -120.388 -64.203C-123.695 -64.0018 -126.988 -63.7145 -130.289 -63.4452C-131.939 -63.3077 -133.583 -63.1343 -135.232 -62.9788C-136.879 -62.8192 -138.53 -62.6637 -140.172 -62.4707L-145.109 -61.9156L-150.036 -61.2938L-152.502 -60.9788L-154.961 -60.6317L-159.882 -59.928L-164.791 -59.1548L-167.246 -58.7634L-169.695 -58.3414L-174.596 -57.4878L-179.485 -56.569C-181.117 -56.2705 -182.741 -55.936 -184.366 -55.6056C-185.99 -55.2711 -187.621 -54.9534 -189.242 -54.6022C-192.483 -53.8929 -195.734 -53.2017 -198.963 -52.4285C-205.436 -50.9364 -211.873 -49.2736 -218.291 -47.5177L-223.097 -46.1713C-224.699 -45.7216 -226.29 -45.2358 -227.889 -44.7681C-231.09 -43.8423 -234.258 -42.8263 -237.445 -41.8394L-242.201 -40.2917L-244.578 -39.5116L-246.946 -38.7052L-251.681 -37.0785L-256.396 -35.3864L-258.754 -34.537L-261.1 -33.657L-265.794 -31.8887C-268.903 -30.6603 -272.033 -29.4692 -275.126 -28.1826C-281.339 -25.6744 -287.486 -22.9873 -293.613 -20.2266C-318.082 -9.10852 -341.821 4.04712 -364.525 19.2542C-387.219 34.4683 -408.846 51.8032 -428.939 71.2965L-432.693 74.9705L-436.395 78.7125C-437.635 79.9548 -438.849 81.2249 -440.062 82.4991C-441.274 83.7747 -442.501 85.035 -443.697 86.3301C-448.508 91.4823 -453.203 96.7776 -457.8 102.188C-466.948 113.052 -475.659 124.428 -483.754 136.372C-499.966 160.227 -513.856 186.264 -524.577 213.976L-387.344 259.176C-383.048 241.355 -376.518 223.688 -367.897 206.55C-363.601 197.974 -358.745 189.554 -353.456 181.29C-350.784 177.173 -348.019 173.087 -345.129 169.053C-344.416 168.04 -343.663 167.05 -342.933 166.044C-342.2 165.04 -341.467 164.035 -340.703 163.05L-338.437 160.07L-336.112 157.123C-323.642 141.434 -309.453 126.623 -293.861 112.998C-278.265 99.3774 -261.321 86.8838 -243.326 75.7631C-207.332 53.5243 -167.23 36.639 -125.33 26.6023C-124.022 26.2748 -122.709 25.9819 -121.396 25.6848C-120.083 25.392 -118.77 25.0756 -117.453 24.798C-114.818 24.2455 -112.184 23.6666 -109.537 23.1683C-106.894 22.6326 -104.242 22.1704 -101.588 21.6915C-100.261 21.4473 -98.9311 21.2501 -97.5999 21.0253C-96.2702 20.8087 -94.9391 20.5784 -93.6066 20.3923L-89.605 19.7997L-85.5978 19.2653L-83.5921 19.0002L-81.585 18.7643L-77.5653 18.2964L-73.5429 17.8953L-71.5289 17.6968L-69.5149 17.5289C-68.1713 17.4192 -66.8263 17.2957 -65.4813 17.1971L-61.4463 16.9252C-39.9168 15.5787 -18.2485 16.145 3.16168 18.9058C24.5662 21.6735 45.7113 26.6093 66.1387 33.8574C86.562 41.1071 106.229 50.7219 124.699 62.5575C126.989 64.0607 129.306 65.5404 131.557 67.1144L133.259 68.2789C133.828 68.6648 134.394 69.0548 134.95 69.4601L138.306 71.8655C139.436 72.6553 140.518 73.5061 141.627 74.3264L143.283 75.5674L144.112 76.1877L144.927 76.8248C147.096 78.5308 149.289 80.2172 151.411 81.9926C155.716 85.4764 159.876 89.1505 163.997 92.8912C166.022 94.7983 168.091 96.668 170.068 98.6361L173.064 101.563L176.004 104.555C183.844 112.544 191.22 121.065 198.233 129.947L199.555 131.61L200.84 133.302L203.414 136.689C205.104 138.953 206.76 141.229 208.385 143.539C211.635 148.154 214.759 152.866 217.749 157.67C223.727 167.276 229.165 177.242 233.958 187.515C238.736 197.792 242.861 208.378 246.18 219.21C249.495 230.041 252.004 241.121 253.493 252.349C254.988 263.574 255.442 274.946 254.659 286.276C253.88 297.604 251.854 308.887 248.473 319.85C245.097 330.81 240.376 341.445 234.408 351.463C231.415 356.467 228.121 361.318 224.563 366.001C223.67 367.17 222.79 368.353 221.846 369.482L220.451 371.198C219.985 371.771 219.526 372.349 219.034 372.9L216.13 376.252L213.121 379.519C209.053 383.832 204.767 387.968 200.301 391.935C195.807 395.865 191.139 399.62 186.335 403.224C187.261 397.294 187.99 391.316 188.474 385.298C188.91 379.278 189.1 373.22 189.003 367.142L188.875 362.581L188.61 358.019C188.576 357.255 188.501 356.498 188.433 355.737L188.229 353.455C188.111 351.93 187.912 350.414 187.727 348.893C186.981 342.815 185.906 336.747 184.479 330.737C181.606 318.721 177.277 306.944 171.56 295.777C165.848 284.607 158.746 274.069 150.558 264.415C142.374 254.753 133.122 245.971 123.15 238.125C113.179 230.27 102.501 223.329 91.3811 217.227C80.2576 211.125 68.6899 205.856 56.839 201.345C44.9825 196.847 32.8444 193.098 20.516 190.049C14.3518 188.525 8.13904 187.178 1.88464 186.003C-1.24115 185.416 -4.38501 184.875 -7.52191 184.377L-12.2217 183.669L-14.5744 183.316L-16.9341 183.011C-29.5192 181.355 -42.2528 180.263 -55.0739 179.96L-59.8848 179.853L-64.7026 179.841C-67.9172 179.809 -71.1319 179.918 -74.3535 179.974C-80.7911 180.192 -87.2454 180.51 -93.6913 181.091C-96.9198 181.34 -100.137 181.705 -103.362 182.05L-104.571 182.182L-105.777 182.336L-108.19 182.646C-109.799 182.862 -111.415 183.04 -113.019 183.297L-117.841 184.024C-118.646 184.141 -119.449 184.275 -120.25 184.416L-122.655 184.831C-125.87 185.358 -129.062 186.006 -132.266 186.628C-157.833 191.839 -182.981 200.04 -206.941 211.029C-230.906 222.015 -253.692 235.708 -274.863 251.554C-296.038 267.408 -315.579 285.415 -333.364 304.995L-336.681 308.683C-337.781 309.92 -338.857 311.172 -339.945 312.417L-341.574 314.289L-343.176 316.181L-346.373 319.976L-349.51 323.818L-351.074 325.745L-352.613 327.689C-353.635 328.988 -354.669 330.282 -355.682 331.588L-358.697 335.529C-359.71 336.839 -360.686 338.172 -361.671 339.5C-362.65 340.832 -363.652 342.152 -364.613 343.497C-366.54 346.183 -368.481 348.869 -370.351 351.596C-372.255 354.306 -374.083 357.061 -375.93 359.811C-376.852 361.186 -377.74 362.58 -378.647 363.966C-379.549 365.354 -380.455 366.741 -381.33 368.146L-383.974 372.352L-386.561 376.592L-387.852 378.716L-389.114 380.854L-391.632 385.141L-394.088 389.462L-395.313 391.625L-396.509 393.805L-398.897 398.169L-401.226 402.564C-402.011 404.027 -402.761 405.506 -403.516 406.982C-404.267 408.461 -405.036 409.933 -405.771 411.42C-407.237 414.396 -408.724 417.368 -410.133 420.374C-413.003 426.366 -415.715 432.435 -418.344 438.547L-420.289 443.144C-420.937 444.678 -421.548 446.224 -422.179 447.765C-423.451 450.845 -424.633 453.957 -425.848 457.062L-427.602 461.744L-428.475 464.09L-429.32 466.444L-431.001 471.16L-432.618 475.902L-433.425 478.275L-434.199 480.658L-435.743 485.432C-436.723 488.628 -437.742 491.819 -438.665 495.038C-440.579 501.459 -442.309 507.941 -443.97 514.452C-450.535 540.515 -455.05 567.279 -457.317 594.51C-459.572 621.74 -459.503 649.456 -456.789 677.318L-456.258 682.544L-455.64 687.77C-455.441 689.513 -455.206 691.255 -454.967 692.998C-454.724 694.74 -454.505 696.486 -454.238 698.228C-453.21 705.202 -451.996 712.174 -450.632 719.142C-447.843 733.068 -444.378 746.971 -440.087 760.746C-431.545 788.294 -419.849 815.387 -404.868 841.047L-283.967 761.934C-295.221 747.465 -304.963 731.344 -312.985 713.917C-317.012 705.213 -320.568 696.166 -323.73 686.877C-325.283 682.222 -326.753 677.511 -328.105 672.739C-328.452 671.549 -328.757 670.345 -329.089 669.145C-329.417 667.946 -329.744 666.745 -330.04 665.534L-330.957 661.905L-331.812 658.251C-336.303 638.72 -339.036 618.391 -339.967 597.706C-340.891 577.02 -340.095 555.983 -337.57 534.98C-332.515 492.973 -320.712 451.091 -302.436 412.075C-301.878 410.848 -301.287 409.641 -300.701 408.427C-300.111 407.217 -299.54 405.994 -298.937 404.792C-297.727 402.388 -296.536 399.967 -295.276 397.587C-294.047 395.186 -292.755 392.826 -291.474 390.451C-290.837 389.262 -290.162 388.099 -289.508 386.919C-288.849 385.744 -288.198 384.56 -287.512 383.401L-285.48 379.904L-283.4 376.436L-282.357 374.703L-281.29 372.986L-279.15 369.552L-276.955 366.157L-275.854 364.458L-274.73 362.778C-273.978 361.661 -273.237 360.531 -272.475 359.419L-270.172 356.095C-257.801 338.424 -243.848 321.836 -228.341 306.818C-212.833 291.809 -195.788 278.354 -177.386 266.903C-158.985 255.454 -139.206 246.074 -118.435 239.012C-115.832 238.158 -113.23 237.27 -110.597 236.491L-108.626 235.886C-107.97 235.68 -107.312 235.482 -106.648 235.3L-102.676 234.176C-101.353 233.784 -100.014 233.469 -98.6812 233.114L-96.6783 232.594L-95.6762 232.333L-94.6699 232.094C-91.984 231.461 -89.2968 230.799 -86.586 230.245C-81.1783 229.053 -75.7123 228.091 -70.2186 227.201C-67.4661 226.807 -64.7137 226.354 -61.9419 226.037L-57.7847 225.519L-53.6138 225.086C-42.4791 223.938 -31.2181 223.484 -19.9002 223.537L-17.778 223.541L-15.6543 223.591L-11.4014 223.691C-8.57678 223.781 -5.76605 223.906 -2.94702 224.075C2.68695 224.411 8.32086 224.908 13.9396 225.566C25.1769 226.882 36.3602 228.843 47.3796 231.503C58.3936 234.175 69.2409 237.549 79.7801 241.709C90.3165 245.869 100.542 250.817 110.25 256.652C119.956 262.482 129.131 269.218 137.501 276.893C145.872 284.564 153.43 293.185 159.894 302.662C166.358 312.135 171.728 322.455 175.841 333.369C177.886 338.828 179.626 344.429 181.068 350.131C181.426 351.556 181.801 352.982 182.095 354.425L182.565 356.585C182.724 357.307 182.887 358.026 183.012 358.753L183.823 363.113L184.502 367.503C185.336 373.373 185.898 379.303 186.216 385.267C186.485 391.23 186.512 397.222 186.334 403.225C182.275 398.804 178.056 394.507 173.652 390.376C169.216 386.282 164.599 382.356 159.787 378.643L156.14 375.899L152.407 373.262C151.789 372.814 151.149 372.399 150.512 371.978L148.601 370.715C147.335 369.854 146.026 369.066 144.723 368.262C139.504 365.056 134.092 362.114 128.502 359.482C117.318 354.237 105.408 350.278 93.1133 347.785C80.8183 345.285 68.1513 344.268 55.4982 344.649C42.8422 345.024 30.2072 346.783 17.8552 349.687C5.49768 352.586 -6.58777 356.606 -18.2915 361.494C-29.998 366.387 -41.3285 372.146 -52.2452 378.599C-63.1536 385.064 -73.6539 392.217 -83.724 399.955C-88.7597 403.825 -93.6871 407.84 -98.5035 411.999C-100.912 414.077 -103.294 416.197 -105.642 418.339L-109.125 421.572L-110.867 423.192L-112.577 424.846C-121.718 433.653 -130.513 442.928 -138.742 452.762L-141.825 456.457L-144.838 460.216C-146.868 462.709 -148.787 465.292 -150.751 467.846C-154.595 473.015 -158.371 478.258 -161.934 483.661C-163.753 486.339 -165.474 489.082 -167.215 491.819L-167.865 492.846L-168.497 493.886L-169.76 495.967C-170.593 497.359 -171.462 498.733 -172.261 500.147L-174.7 504.371C-175.112 505.074 -175.507 505.784 -175.895 506.499L-177.071 508.638C-178.663 511.481 -180.147 514.38 -181.657 517.273C-193.523 540.511 -202.791 565.286 -209.139 590.871C-215.492 616.456 -218.993 642.809 -219.805 669.241C-220.611 695.68 -218.718 722.186 -214.497 748.298L-213.681 753.192C-213.401 754.822 -213.093 756.445 -212.797 758.073L-212.349 760.514L-211.867 762.946L-210.894 767.812L-209.846 772.661L-209.316 775.084L-208.755 777.499C-208.378 779.108 -208.011 780.724 -207.62 782.331L-206.419 787.145C-206.028 788.753 -205.593 790.348 -205.168 791.947C-204.738 793.543 -204.33 795.149 -203.876 796.739C-202.978 799.921 -202.088 803.112 -201.122 806.274C-200.191 809.453 -199.178 812.599 -198.18 815.759C-197.679 817.337 -197.143 818.901 -196.624 820.474C-196.102 822.045 -195.583 823.619 -195.029 825.176L-193.39 829.865L-191.687 834.532L-190.83 836.865L-189.945 839.186L-188.164 843.827L-186.318 848.442L-185.389 850.749L-184.433 853.043L-182.509 857.631L-180.526 862.193C-179.87 863.719 -179.183 865.226 -178.499 866.738C-177.812 868.246 -177.14 869.766 -176.436 871.268C-175.023 874.269 -173.627 877.285 -172.154 880.26C-169.256 886.232 -166.203 892.137 -163.062 898.003L-160.68 902.389C-159.884 903.85 -159.057 905.294 -158.245 906.749C-156.631 909.662 -154.935 912.527 -153.264 915.413L-150.696 919.704L-149.409 921.85L-148.095 923.978L-145.455 928.232L-142.756 932.452L-141.403 934.562L-140.023 936.653L-137.254 940.835C-135.365 943.595 -133.507 946.381 -131.565 949.109C-127.738 954.609 -123.75 960.004 -119.694 965.362C-103.41 986.744 -85.3008 1006.96 -65.4244 1025.71C-45.5424 1044.45 -23.8297 1061.68 -0.354187 1076.93L4.06244 1079.77L8.53461 1082.55C10.0212 1083.48 11.53 1084.38 13.0429 1085.28C14.5558 1086.18 16.0577 1087.09 17.5859 1087.97C23.6793 1091.52 29.8865 1094.92 36.1853 1098.19C48.8121 1104.7 61.8428 1110.66 75.2871 1115.89C102.151 1126.39 130.626 1134.14 160.028 1138.42L173.556 994.571C155.227 994.349 136.55 991.913 117.921 987.322C108.605 985.042 99.3165 982.182 90.082 978.863C85.4738 977.175 80.8738 975.387 76.3004 973.469C75.1539 972.997 74.0212 972.485 72.8788 971.998C71.7379 971.506 70.5942 971.015 69.463 970.489L66.054 968.943L62.6631 967.333C44.5939 958.666 26.9952 948.128 10.2419 935.959C-6.50726 923.785 -22.4583 910.047 -37.3032 894.977C-66.9942 864.835 -92.3796 829.493 -111.488 790.877C-112.099 789.675 -112.677 788.461 -113.26 787.246C-113.838 786.03 -114.437 784.821 -115.002 783.6C-116.127 781.155 -117.278 778.714 -118.352 776.245C-119.463 773.786 -120.502 771.305 -121.561 768.823C-122.096 767.583 -122.583 766.33 -123.098 765.084C-123.604 763.836 -124.125 762.588 -124.604 761.33L-126.072 757.562L-127.485 753.774L-128.19 751.878L-128.866 749.974L-130.217 746.159L-131.504 742.326L-132.145 740.406L-132.757 738.479C-133.162 737.194 -133.583 735.91 -133.977 734.621L-135.14 730.747C-141.243 710.057 -145.513 688.805 -147.587 667.317C-149.651 645.834 -149.544 624.119 -147.023 602.591C-144.5 581.066 -139.501 559.754 -132.073 539.112C-131.116 536.544 -130.189 533.957 -129.156 531.412L-128.4 529.494C-128.15 528.853 -127.896 528.215 -127.624 527.583L-126.027 523.776C-125.507 522.497 -124.919 521.254 -124.366 519.991L-123.525 518.1L-123.105 517.153L-122.665 516.216C-121.486 513.722 -120.327 511.209 -119.07 508.743C-116.631 503.772 -113.974 498.898 -111.244 494.049C-109.835 491.651 -108.474 489.217 -106.994 486.852L-104.807 483.279L-102.544 479.748C-96.4993 470.326 -89.834 461.24 -82.7343 452.425L-81.4074 450.767L-80.0443 449.138L-77.3155 445.875C-75.4847 443.723 -73.6331 441.602 -71.744 439.504C-67.9686 435.309 -64.0683 431.213 -60.0513 427.231C-52.0147 419.266 -43.5104 411.745 -34.5605 404.788C-25.605 397.842 -16.2026 391.466 -6.37958 385.819C3.44202 380.176 13.687 375.266 24.3011 371.315C34.9111 367.36 45.8973 364.387 57.118 362.628C68.3345 360.866 79.7856 360.331 91.2256 361.188C102.662 362.04 114.081 364.276 125.177 367.865C130.722 369.668 136.185 371.802 141.541 374.228C142.879 374.837 144.227 375.433 145.54 376.102L147.524 377.08C148.186 377.407 148.851 377.727 149.497 378.083L153.412 380.167L157.267 382.374C162.378 385.381 167.364 388.64 172.225 392.11C177.055 395.617 181.756 399.332 186.338 403.214C180.35 403.63 174.361 404.251 168.384 405.118C162.417 406.033 156.471 407.196 150.566 408.643L146.148 409.782L141.759 411.056C141.023 411.26 140.3 411.502 139.574 411.736L137.395 412.444C135.934 412.898 134.501 413.43 133.059 413.948C127.299 416.028 121.623 418.425 116.081 421.154C105.006 426.628 94.4861 433.47 84.8713 441.529C75.2524 449.582 66.5579 458.853 58.9682 468.982C51.3702 479.111 44.8673 490.086 39.436 501.554C33.9978 513.023 29.6047 524.978 26.1305 537.176C22.6563 549.378 20.0941 561.828 18.3326 574.385C16.5851 586.946 15.6315 599.614 15.4025 612.312C15.2887 618.66 15.3568 625.018 15.6038 631.376C15.7274 634.553 15.8995 637.739 16.1104 640.909L16.4658 645.648L16.6462 648.02L16.8724 650.389C18.0592 663.027 19.8275 675.686 22.3856 688.251L23.3517 692.965L24.4108 697.665C25.0951 700.806 25.9167 703.916 26.6885 707.045C28.3333 713.273 30.0794 719.494 32.0809 725.649C33.0414 728.74 34.113 731.796 35.1679 734.864L35.5663 736.013L35.9855 737.155L36.8252 739.44C37.3943 740.96 37.9273 742.496 38.5339 744.002L40.316 748.543C40.6089 749.302 40.9185 750.054 41.2349 750.804L42.1746 753.056C43.4044 756.074 44.7466 759.042 46.0667 762.026C56.8362 785.793 70.4291 808.484 86.4717 829.4C102.514 850.32 120.936 869.487 141.094 886.602C161.262 903.716 183.165 918.762 206.213 931.744L210.548 934.158C211.997 934.954 213.458 935.725 214.915 936.509L217.102 937.681L219.303 938.821L223.715 941.094L228.159 943.298L230.384 944.394L232.623 945.462C234.116 946.17 235.607 946.89 237.108 947.587L241.619 949.649C243.12 950.346 244.638 951 246.153 951.666C247.67 952.324 249.179 953.007 250.706 953.644C253.754 954.927 256.803 956.22 259.878 957.436C262.943 958.69 266.035 959.86 269.126 961.049C270.672 961.642 272.23 962.197 273.783 962.773C275.336 963.344 276.891 963.92 278.455 964.458L283.144 966.1L287.853 967.678L290.212 968.464L292.578 969.218L297.317 970.719L302.076 972.153L304.458 972.865L306.848 973.547L311.634 974.903L316.438 976.197C318.039 976.637 319.647 977.039 321.255 977.446C322.863 977.85 324.469 978.272 326.083 978.658C329.311 979.424 332.539 980.212 335.783 980.916C342.264 982.38 348.785 983.674 355.329 984.877L360.244 985.75C361.883 986.04 363.527 986.293 365.17 986.565C368.455 987.119 371.752 987.58 375.05 988.072L380.005 988.741L382.485 989.072L384.969 989.372L389.94 989.962L394.922 990.483L397.415 990.74L399.911 990.965L404.906 991.408C408.24 991.651 411.578 991.935 414.922 992.118C421.608 992.556 428.312 992.801 435.03 992.972C461.901 993.572 488.996 992.019 516.05 988.168C543.098 984.308 570.104 978.073 596.665 969.229L601.641 967.548L606.599 965.782C608.255 965.202 609.901 964.583 611.547 963.963C613.192 963.338 614.844 962.736 616.484 962.089C623.054 959.535 629.581 956.8 636.07 953.92C649.028 948.103 661.811 941.631 674.287 934.383C699.243 919.924 723.055 902.493 744.737 882.177L640.705 781.912C629.101 796.106 615.551 809.189 600.348 820.89Z" fill="#6529E2" fill-opacity="0.4"/>
</g>
</svg>
